<svg xmlns="http://www.w3.org/2000/svg" xmlns:xlink="http://www.w3.org/1999/xlink" width="497" zoomAndPan="magnify" viewBox="0 0 372.75 406.499988" height="542" preserveAspectRatio="xMidYMid meet" version="1.0"><defs><clipPath id="449ec0fc4e"><path d="M 1 83 L 369.480469 83 L 369.480469 398.460938 L 1 398.460938 Z M 1 83 " clip-rule="nonzero"/></clipPath><clipPath id="6c0be8f2b3"><path d="M 173.515625 109.140625 C 198.085938 96.78125 206.175781 92.511719 213.515625 90.265625 C 220.109375 88.316406 228.347656 88.015625 232.992188 86.96875 C 235.613281 86.292969 235.988281 85.542969 239.136719 85.09375 C 248.574219 83.597656 288.949219 82.023438 297.261719 84.421875 C 299.808594 85.171875 299.886719 85.84375 301.832031 87.417969 C 306.101562 90.863281 316.664062 101.277344 320.785156 106.445312 C 323.257812 109.515625 323.78125 111.613281 325.878906 114.308594 C 328.5 117.605469 332.546875 120.976562 335.542969 124.722656 C 338.613281 128.46875 341.085938 131.914062 344.15625 136.707031 C 348.351562 143.222656 354.644531 153.5625 357.9375 160.527344 C 360.335938 165.546875 361.683594 169.667969 363.03125 174.011719 C 364.304688 177.832031 365.128906 180.828125 365.953125 185.023438 C 367.003906 190.566406 367.828125 195.507812 368.425781 204.421875 C 369.699219 223.898438 369.847656 285.921875 368.652344 298.28125 C 368.425781 301.28125 368.050781 302.101562 367.601562 303.902344 C 367.152344 305.550781 366.777344 307.121094 366.027344 308.621094 C 365.203125 310.269531 364.304688 311.390625 362.808594 313.265625 C 360.1875 316.636719 356.214844 320.53125 350.746094 326.296875 C 339.660156 337.835938 308.273438 369.820312 299.585938 377.910156 C 296.738281 380.53125 295.988281 381.28125 293.742188 382.855469 C 291.046875 384.800781 287.75 386.824219 284.453125 388.472656 C 281.082031 390.121094 277.636719 391.394531 273.890625 392.59375 C 269.699219 393.941406 266.625 395.214844 260.335938 396.039062 C 246.851562 397.761719 206.25 397.535156 195.539062 396.636719 C 191.941406 396.335938 190.667969 396.1875 188.496094 395.363281 C 186.25 394.539062 184.226562 393.117188 182.28125 391.84375 C 180.480469 390.570312 179.207031 389.671875 177.261719 387.871094 C 173.964844 385.101562 168.796875 377.683594 165.277344 376.039062 C 163.253906 375.136719 162.128906 375.214844 159.65625 375.511719 C 154.789062 376.1875 146.625 380.683594 137.933594 383.453125 C 125.351562 387.5 101.078125 394.539062 90.890625 396.488281 C 86.023438 397.386719 84.601562 397.3125 80.03125 397.609375 C 72.164062 397.984375 54.636719 398.359375 47.894531 397.835938 C 44.75 397.609375 43.25 397.386719 41.078125 396.636719 C 39.054688 395.964844 37.332031 395.140625 35.3125 393.640625 C 32.238281 391.46875 28.042969 387.421875 25.199219 383.753906 C 22.351562 380.007812 19.878906 375.4375 18.15625 371.316406 C 16.660156 367.496094 16.285156 365.027344 15.308594 359.933594 C 13.363281 349.96875 11.414062 327.722656 9.167969 315.136719 C 7.445312 305.847656 4.972656 301.953125 3.773438 291.09375 C 1.300781 269.59375 0.253906 214.238281 3.101562 193.1875 C 4.449219 182.925781 6.171875 178.582031 9.394531 170.714844 C 13.4375 161.050781 21.304688 149.066406 26.847656 140.078125 C 31.339844 132.738281 34.9375 126.144531 39.878906 120.527344 C 44.523438 115.359375 50.59375 110.789062 55.535156 107.492188 C 59.355469 105.019531 62.351562 103.671875 66.398438 101.949219 C 71.417969 99.777344 75.535156 97.304688 83.402344 95.882812 C 99.507812 93.109375 148.273438 92.511719 159.207031 95.359375 C 162.503906 96.257812 163.027344 97.230469 165.199219 98.878906 C 168.273438 101.199219 173.066406 106.144531 175.238281 108.839844 C 176.511719 110.488281 177.261719 111.386719 177.859375 113.035156 C 178.460938 114.832031 178.984375 117.828125 178.609375 119.402344 C 178.386719 120.527344 177.859375 121.351562 177.035156 121.949219 C 176.0625 122.625 174.039062 123.074219 172.839844 122.847656 C 171.867188 122.625 170.96875 122.023438 170.445312 121.199219 C 169.769531 120.152344 169.320312 118.128906 169.769531 116.929688 C 170.144531 115.734375 171.71875 114.308594 172.917969 113.933594 C 174.113281 113.636719 176.136719 114.085938 177.113281 114.910156 C 178.085938 115.734375 178.835938 117.679688 178.683594 118.953125 C 178.535156 120.226562 177.335938 121.949219 176.210938 122.472656 C 175.089844 123.074219 172.992188 122.921875 171.941406 122.472656 C 171.042969 122.101562 170.371094 121.199219 169.921875 120.300781 C 169.394531 119.253906 170.070312 117.753906 169.320312 116.183594 C 167.898438 113.035156 164.675781 107.117188 158.609375 104.421875 C 145.351562 98.578125 100.105469 101.199219 83.550781 104.421875 C 74.789062 106.144531 69.019531 109.964844 64.300781 112.285156 C 61.453125 113.785156 59.957031 114.535156 57.558594 116.257812 C 54.261719 118.578125 50.21875 121.574219 46.695312 125.394531 C 42.203125 130.339844 37.859375 137.457031 33.589844 144.273438 C 28.792969 151.914062 22.726562 163.300781 19.582031 169.367188 C 17.855469 172.738281 16.882812 174.085938 15.761719 177.230469 C 14.113281 181.578125 12.539062 185.546875 11.566406 193.261719 C 9.167969 212.214844 9.691406 277.457031 11.941406 293.488281 C 12.613281 298.65625 13.886719 299.183594 14.710938 303.601562 C 16.359375 311.542969 17.257812 326.898438 19.128906 337.835938 C 20.929688 348.097656 22.800781 360.308594 25.496094 367.496094 C 27.144531 371.917969 28.71875 374.539062 31.191406 377.761719 C 34.039062 381.355469 38.757812 386.148438 41.753906 387.796875 C 43.476562 388.773438 44.074219 388.695312 46.398438 388.996094 C 53.4375 389.894531 74.414062 390.644531 88.71875 388.695312 C 104 386.523438 122.652344 379.933594 135.238281 375.8125 C 144.078125 372.816406 152.617188 368.621094 157.410156 367.125 C 159.582031 366.449219 160.632812 366 162.355469 366 C 164.226562 365.925781 166.101562 365.925781 168.347656 367.046875 C 172.390625 369.144531 178.683594 377.683594 182.953125 381.207031 C 186.027344 383.679688 188.871094 386 191.269531 386.972656 C 192.84375 387.648438 193.667969 387.574219 195.539062 387.796875 C 198.910156 388.097656 203.628906 387.949219 209.921875 388.023438 C 222.132812 388.023438 250.894531 389.597656 263.628906 387.421875 C 271.046875 386.148438 275.464844 384.128906 280.558594 381.582031 C 285.429688 379.109375 287.976562 377.234375 293.742188 372.441406 C 307.226562 361.128906 348.800781 319.480469 356.816406 308.921875 C 359.136719 305.847656 359.738281 304.351562 360.5625 302.402344 C 361.160156 300.90625 361.382812 299.929688 361.609375 298.207031 C 361.910156 295.660156 361.683594 293.1875 361.757812 288.394531 C 361.835938 274.910156 362.433594 229.667969 361.234375 211.164062 C 360.636719 200.828125 359.585938 193.1875 358.386719 186.96875 C 357.640625 183 356.964844 180.078125 355.917969 177.308594 C 355.09375 175.058594 353.820312 173.488281 352.996094 171.390625 C 352.171875 169.140625 352.171875 167.121094 350.972656 164.421875 C 349.175781 160.078125 345.203125 153.859375 341.832031 148.390625 C 338.089844 142.476562 333.59375 135.582031 329.472656 130.339844 C 325.878906 125.84375 321.382812 121.875 318.835938 118.429688 C 317.039062 116.183594 316.890625 114.757812 314.941406 112.285156 C 311.046875 107.417969 304.753906 96.332031 295.839844 92.585938 C 283.554688 87.34375 258.835938 91.460938 244.304688 92.585938 C 233.441406 93.484375 224.828125 94.535156 216.214844 97.082031 C 208.347656 99.402344 201.382812 103.371094 194.414062 106.667969 C 187.824219 109.816406 178.835938 116.105469 175.386719 116.332031 C 174.191406 116.40625 173.515625 115.957031 172.839844 115.433594 C 172.167969 114.910156 171.644531 113.859375 171.492188 113.035156 C 171.417969 112.210938 171.71875 111.089844 172.167969 110.414062 C 172.46875 109.816406 173.515625 109.140625 173.515625 109.140625 " clip-rule="nonzero"/></clipPath><clipPath id="23a4d72e9b"><path d="M 0 0 L 368.480469 0 L 368.480469 315.390625 L 0 315.390625 Z M 0 0 " clip-rule="nonzero"/></clipPath><clipPath id="02d743a308"><path d="M 172.515625 26.140625 C 197.085938 13.78125 205.175781 9.511719 212.515625 7.265625 C 219.109375 5.316406 227.347656 5.015625 231.992188 3.96875 C 234.613281 3.292969 234.988281 2.542969 238.136719 2.09375 C 247.574219 0.597656 287.949219 -0.976562 296.261719 1.421875 C 298.808594 2.171875 298.886719 2.84375 300.832031 4.417969 C 305.101562 7.863281 315.664062 18.277344 319.785156 23.445312 C 322.257812 26.515625 322.78125 28.613281 324.878906 31.308594 C 327.5 34.605469 331.546875 37.976562 334.542969 41.722656 C 337.613281 45.46875 340.085938 48.914062 343.15625 53.707031 C 347.351562 60.222656 353.644531 70.5625 356.9375 77.527344 C 359.335938 82.546875 360.683594 86.667969 362.03125 91.011719 C 363.304688 94.832031 364.128906 97.828125 364.953125 102.023438 C 366.003906 107.566406 366.828125 112.507812 367.425781 121.421875 C 368.699219 140.898438 368.847656 202.921875 367.652344 215.28125 C 367.425781 218.28125 367.050781 219.101562 366.601562 220.902344 C 366.152344 222.550781 365.777344 224.121094 365.027344 225.621094 C 364.203125 227.269531 363.304688 228.390625 361.808594 230.265625 C 359.1875 233.636719 355.214844 237.53125 349.746094 243.296875 C 338.660156 254.835938 307.273438 286.820312 298.585938 294.910156 C 295.738281 297.53125 294.988281 298.28125 292.742188 299.855469 C 290.046875 301.800781 286.75 303.824219 283.453125 305.472656 C 280.082031 307.121094 276.636719 308.394531 272.890625 309.59375 C 268.699219 310.941406 265.625 312.214844 259.335938 313.039062 C 245.851562 314.761719 205.25 314.535156 194.539062 313.636719 C 190.941406 313.335938 189.667969 313.1875 187.496094 312.363281 C 185.25 311.539062 183.226562 310.117188 181.28125 308.84375 C 179.480469 307.570312 178.207031 306.671875 176.261719 304.871094 C 172.964844 302.101562 167.796875 294.683594 164.277344 293.039062 C 162.253906 292.136719 161.128906 292.214844 158.65625 292.511719 C 153.789062 293.1875 145.625 297.683594 136.933594 300.453125 C 124.351562 304.5 100.078125 311.539062 89.890625 313.488281 C 85.023438 314.386719 83.601562 314.3125 79.03125 314.609375 C 71.164062 314.984375 53.636719 315.359375 46.894531 314.835938 C 43.75 314.609375 42.25 314.386719 40.078125 313.636719 C 38.054688 312.964844 36.332031 312.140625 34.3125 310.640625 C 31.238281 308.46875 27.042969 304.421875 24.199219 300.753906 C 21.351562 297.007812 18.878906 292.4375 17.15625 288.316406 C 15.660156 284.496094 15.285156 282.027344 14.308594 276.933594 C 12.363281 266.96875 10.414062 244.722656 8.167969 232.136719 C 6.445312 222.847656 3.972656 218.953125 2.773438 208.09375 C 0.300781 186.59375 -0.746094 131.238281 2.101562 110.1875 C 3.449219 99.925781 5.171875 95.582031 8.394531 87.714844 C 12.4375 78.050781 20.304688 66.066406 25.847656 57.078125 C 30.339844 49.738281 33.9375 43.144531 38.878906 37.527344 C 43.523438 32.359375 49.59375 27.789062 54.535156 24.492188 C 58.355469 22.019531 61.351562 20.671875 65.398438 18.949219 C 70.417969 16.777344 74.535156 14.304688 82.402344 12.882812 C 98.507812 10.109375 147.273438 9.511719 158.207031 12.359375 C 161.503906 13.257812 162.027344 14.230469 164.199219 15.878906 C 167.273438 18.199219 172.066406 23.144531 174.238281 25.839844 C 175.511719 27.488281 176.261719 28.386719 176.859375 30.035156 C 177.460938 31.832031 177.984375 34.828125 177.609375 36.402344 C 177.386719 37.527344 176.859375 38.351562 176.035156 38.949219 C 175.0625 39.625 173.039062 40.074219 171.839844 39.847656 C 170.867188 39.625 169.96875 39.023438 169.445312 38.199219 C 168.769531 37.152344 168.320312 35.128906 168.769531 33.929688 C 169.144531 32.734375 170.71875 31.308594 171.917969 30.933594 C 173.113281 30.636719 175.136719 31.085938 176.113281 31.910156 C 177.085938 32.734375 177.835938 34.679688 177.683594 35.953125 C 177.535156 37.226562 176.335938 38.949219 175.210938 39.472656 C 174.089844 40.074219 171.992188 39.921875 170.941406 39.472656 C 170.042969 39.101562 169.371094 38.199219 168.921875 37.300781 C 168.394531 36.253906 169.070312 34.753906 168.320312 33.183594 C 166.898438 30.035156 163.675781 24.117188 157.609375 21.421875 C 144.351562 15.578125 99.105469 18.199219 82.550781 21.421875 C 73.789062 23.144531 68.019531 26.964844 63.300781 29.285156 C 60.453125 30.785156 58.957031 31.535156 56.558594 33.257812 C 53.261719 35.578125 49.21875 38.574219 45.695312 42.394531 C 41.203125 47.339844 36.859375 54.457031 32.589844 61.273438 C 27.792969 68.914062 21.726562 80.300781 18.582031 86.367188 C 16.855469 89.738281 15.882812 91.085938 14.761719 94.230469 C 13.113281 98.578125 11.539062 102.546875 10.566406 110.261719 C 8.167969 129.214844 8.691406 194.457031 10.941406 210.488281 C 11.613281 215.65625 12.886719 216.183594 13.710938 220.601562 C 15.359375 228.542969 16.257812 243.898438 18.128906 254.835938 C 19.929688 265.097656 21.800781 277.308594 24.496094 284.496094 C 26.144531 288.917969 27.71875 291.539062 30.191406 294.761719 C 33.039062 298.355469 37.757812 303.148438 40.753906 304.796875 C 42.476562 305.773438 43.074219 305.695312 45.398438 305.996094 C 52.4375 306.894531 73.414062 307.644531 87.71875 305.695312 C 103 303.523438 121.652344 296.933594 134.238281 292.8125 C 143.078125 289.816406 151.617188 285.621094 156.410156 284.125 C 158.582031 283.449219 159.632812 283 161.355469 283 C 163.226562 282.925781 165.101562 282.925781 167.347656 284.046875 C 171.390625 286.144531 177.683594 294.683594 181.953125 298.207031 C 185.027344 300.679688 187.871094 303 190.269531 303.972656 C 191.84375 304.648438 192.667969 304.574219 194.539062 304.796875 C 197.910156 305.097656 202.628906 304.949219 208.921875 305.023438 C 221.132812 305.023438 249.894531 306.597656 262.628906 304.421875 C 270.046875 303.148438 274.464844 301.128906 279.558594 298.582031 C 284.429688 296.109375 286.976562 294.234375 292.742188 289.441406 C 306.226562 278.128906 347.800781 236.480469 355.816406 225.921875 C 358.136719 222.847656 358.738281 221.351562 359.5625 219.402344 C 360.160156 217.90625 360.382812 216.929688 360.609375 215.207031 C 360.910156 212.660156 360.683594 210.1875 360.757812 205.394531 C 360.835938 191.910156 361.433594 146.667969 360.234375 128.164062 C 359.636719 117.828125 358.585938 110.1875 357.386719 103.96875 C 356.640625 100 355.964844 97.078125 354.917969 94.308594 C 354.09375 92.058594 352.820312 90.488281 351.996094 88.390625 C 351.171875 86.140625 351.171875 84.121094 349.972656 81.421875 C 348.175781 77.078125 344.203125 70.859375 340.832031 65.390625 C 337.089844 59.476562 332.59375 52.582031 328.472656 47.339844 C 324.878906 42.84375 320.382812 38.875 317.835938 35.429688 C 316.039062 33.183594 315.890625 31.757812 313.941406 29.285156 C 310.046875 24.417969 303.753906 13.332031 294.839844 9.585938 C 282.554688 4.34375 257.835938 8.460938 243.304688 9.585938 C 232.441406 10.484375 223.828125 11.535156 215.214844 14.082031 C 207.347656 16.402344 200.382812 20.371094 193.414062 23.667969 C 186.824219 26.816406 177.835938 33.105469 174.386719 33.332031 C 173.191406 33.40625 172.515625 32.957031 171.839844 32.433594 C 171.167969 31.910156 170.644531 30.859375 170.492188 30.035156 C 170.417969 29.210938 170.71875 28.089844 171.167969 27.414062 C 171.46875 26.816406 172.515625 26.140625 172.515625 26.140625 " clip-rule="nonzero"/></clipPath><clipPath id="82988a80a9"><rect x="0" width="369" y="0" height="316"/></clipPath><clipPath id="099905964c"><path d="M 156 2.636719 L 247.363281 2.636719 L 247.363281 117.117188 L 156 117.117188 Z M 156 2.636719 " clip-rule="nonzero"/></clipPath><clipPath id="d292043077"><path d="M 160.183594 112.136719 C 160.632812 80.078125 161.753906 77.679688 162.953125 74.082031 C 164.378906 70.1875 166.324219 66.59375 168.046875 61.800781 C 170.371094 55.507812 173.140625 44.871094 175.238281 39.625 C 176.511719 36.628906 177.1875 34.980469 178.609375 32.734375 C 180.332031 30.113281 182.429688 27.492188 185.125 24.871094 C 188.496094 21.722656 193.589844 18.203125 197.636719 15.507812 C 201.15625 13.183594 204.152344 11.3125 207.898438 9.589844 C 212.09375 7.640625 216.8125 5.769531 221.53125 4.71875 C 226.550781 3.59375 233.292969 2.773438 237.1875 2.996094 C 239.507812 3.222656 241.382812 3.296875 242.65625 4.417969 C 243.929688 5.46875 244.378906 7.867188 244.976562 9.511719 C 245.503906 10.9375 245.953125 11.910156 246.25 13.78125 C 246.699219 16.855469 246.550781 21.648438 246.625 26.441406 C 246.699219 32.808594 248.199219 41.574219 246.476562 48.691406 C 244.679688 56.03125 239.359375 63.296875 235.6875 69.738281 C 232.542969 75.582031 228.046875 81.425781 226.027344 85.84375 C 224.753906 88.617188 225.050781 90.636719 223.777344 93.109375 C 222.207031 96.03125 219.433594 99.253906 216.886719 102.023438 C 214.414062 104.796875 212.394531 107.644531 208.722656 109.664062 C 203.628906 112.363281 195.015625 113.710938 188.046875 114.683594 C 181.007812 115.582031 171.34375 114.382812 166.699219 115.207031 C 164.453125 115.582031 163.179688 116.632812 161.679688 116.855469 C 160.707031 117.007812 159.808594 117.082031 158.984375 116.78125 C 158.160156 116.40625 157.261719 115.734375 156.8125 114.984375 C 156.363281 114.234375 156.136719 113.1875 156.210938 112.285156 C 156.285156 111.464844 156.738281 110.414062 157.335938 109.816406 C 157.933594 109.140625 158.832031 108.617188 159.734375 108.464844 C 160.558594 108.316406 161.679688 108.390625 162.429688 108.839844 C 163.402344 109.441406 164.527344 111.089844 164.75 112.210938 C 164.976562 113.109375 164.75 114.085938 164.226562 114.910156 C 163.554688 115.808594 161.90625 116.855469 160.78125 117.007812 C 159.882812 117.15625 158.832031 116.78125 158.160156 116.332031 C 157.410156 115.882812 156.738281 114.984375 156.4375 114.160156 C 156.136719 113.335938 156.0625 112.285156 156.363281 111.386719 C 156.8125 110.339844 157.933594 109.367188 159.285156 108.617188 C 161.082031 107.566406 163.628906 106.96875 166.625 106.59375 C 171.117188 105.996094 177.710938 107.042969 183.628906 106.519531 C 190.070312 105.996094 198.910156 105.394531 203.703125 103.074219 C 207.074219 101.5 209.097656 98.578125 211.121094 96.632812 C 212.765625 95.058594 213.964844 94.085938 215.238281 92.210938 C 216.886719 89.589844 217.636719 85.84375 219.507812 82.175781 C 221.90625 77.453125 225.875 71.6875 228.722656 66.292969 C 231.570312 61.050781 235.089844 54.308594 236.511719 50.1875 C 237.414062 47.867188 237.636719 47.117188 238.011719 44.421875 C 238.6875 38.425781 239.359375 20.148438 237.863281 15.054688 C 237.335938 13.109375 236.886719 11.984375 235.464844 11.3125 C 233.292969 10.1875 228.046875 11.3125 224.226562 12.136719 C 220.109375 13.035156 215.3125 14.832031 211.570312 16.554688 C 208.347656 18.054688 205.875 19.625 202.878906 21.722656 C 199.210938 24.121094 194.339844 27.640625 191.417969 30.488281 C 189.171875 32.585938 187.597656 34.457031 186.25 36.554688 C 184.902344 38.578125 184.453125 39.777344 183.179688 42.847656 C 179.957031 50.5625 170.96875 71.6875 168.648438 84.570312 C 166.773438 95.058594 169.921875 110.113281 168.046875 114.085938 C 167.523438 115.28125 166.699219 115.734375 165.875 116.03125 C 164.976562 116.332031 163.703125 116.257812 162.878906 116.03125 C 162.203125 115.808594 161.605469 115.433594 161.230469 114.910156 C 160.707031 114.234375 160.183594 112.136719 160.183594 112.136719 " clip-rule="nonzero"/></clipPath><clipPath id="c41f3fef03"><path d="M 0 0.636719 L 91.363281 0.636719 L 91.363281 115.117188 L 0 115.117188 Z M 0 0.636719 " clip-rule="nonzero"/></clipPath><clipPath id="62b7c2d2c2"><path d="M 4.183594 110.136719 C 4.632812 78.078125 5.753906 75.679688 6.953125 72.082031 C 8.378906 68.1875 10.324219 64.59375 12.046875 59.800781 C 14.371094 53.507812 17.140625 42.871094 19.238281 37.625 C 20.511719 34.628906 21.1875 32.980469 22.609375 30.734375 C 24.332031 28.113281 26.429688 25.492188 29.125 22.871094 C 32.496094 19.722656 37.589844 16.203125 41.636719 13.507812 C 45.15625 11.183594 48.152344 9.3125 51.898438 7.589844 C 56.09375 5.640625 60.8125 3.769531 65.53125 2.71875 C 70.550781 1.59375 77.292969 0.773438 81.1875 0.996094 C 83.507812 1.222656 85.382812 1.296875 86.65625 2.417969 C 87.929688 3.46875 88.378906 5.867188 88.976562 7.511719 C 89.503906 8.9375 89.953125 9.910156 90.25 11.78125 C 90.699219 14.855469 90.550781 19.648438 90.625 24.441406 C 90.699219 30.808594 92.199219 39.574219 90.476562 46.691406 C 88.679688 54.03125 83.359375 61.296875 79.6875 67.738281 C 76.542969 73.582031 72.046875 79.425781 70.027344 83.84375 C 68.753906 86.617188 69.050781 88.636719 67.777344 91.109375 C 66.207031 94.03125 63.433594 97.253906 60.886719 100.023438 C 58.414062 102.796875 56.394531 105.644531 52.722656 107.664062 C 47.628906 110.363281 39.015625 111.710938 32.046875 112.683594 C 25.007812 113.582031 15.34375 112.382812 10.699219 113.207031 C 8.453125 113.582031 7.179688 114.632812 5.679688 114.855469 C 4.707031 115.007812 3.808594 115.082031 2.984375 114.78125 C 2.160156 114.40625 1.261719 113.734375 0.8125 112.984375 C 0.363281 112.234375 0.136719 111.1875 0.210938 110.285156 C 0.285156 109.464844 0.738281 108.414062 1.335938 107.816406 C 1.933594 107.140625 2.832031 106.617188 3.734375 106.464844 C 4.558594 106.316406 5.679688 106.390625 6.429688 106.839844 C 7.402344 107.441406 8.527344 109.089844 8.75 110.210938 C 8.976562 111.109375 8.75 112.085938 8.226562 112.910156 C 7.554688 113.808594 5.90625 114.855469 4.78125 115.007812 C 3.882812 115.15625 2.832031 114.78125 2.160156 114.332031 C 1.410156 113.882812 0.738281 112.984375 0.4375 112.160156 C 0.136719 111.335938 0.0625 110.285156 0.363281 109.386719 C 0.8125 108.339844 1.933594 107.367188 3.285156 106.617188 C 5.082031 105.566406 7.628906 104.96875 10.625 104.59375 C 15.117188 103.996094 21.710938 105.042969 27.628906 104.519531 C 34.070312 103.996094 42.910156 103.394531 47.703125 101.074219 C 51.074219 99.5 53.097656 96.578125 55.121094 94.632812 C 56.765625 93.058594 57.964844 92.085938 59.238281 90.210938 C 60.886719 87.589844 61.636719 83.84375 63.507812 80.175781 C 65.90625 75.453125 69.875 69.6875 72.722656 64.292969 C 75.570312 59.050781 79.089844 52.308594 80.511719 48.1875 C 81.414062 45.867188 81.636719 45.117188 82.011719 42.421875 C 82.6875 36.425781 83.359375 18.148438 81.863281 13.054688 C 81.335938 11.109375 80.886719 9.984375 79.464844 9.3125 C 77.292969 8.1875 72.046875 9.3125 68.226562 10.136719 C 64.109375 11.035156 59.3125 12.832031 55.570312 14.554688 C 52.347656 16.054688 49.875 17.625 46.878906 19.722656 C 43.210938 22.121094 38.339844 25.640625 35.417969 28.488281 C 33.171875 30.585938 31.597656 32.457031 30.25 34.554688 C 28.902344 36.578125 28.453125 37.777344 27.179688 40.847656 C 23.957031 48.5625 14.96875 69.6875 12.648438 82.570312 C 10.773438 93.058594 13.921875 108.113281 12.046875 112.085938 C 11.523438 113.28125 10.699219 113.734375 9.875 114.03125 C 8.976562 114.332031 7.703125 114.257812 6.878906 114.03125 C 6.203125 113.808594 5.605469 113.433594 5.230469 112.910156 C 4.707031 112.234375 4.183594 110.136719 4.183594 110.136719 " clip-rule="nonzero"/></clipPath><clipPath id="db6ae75733"><rect x="0" width="92" y="0" height="116"/></clipPath><clipPath id="4aa3b78b8e"><path d="M 104.757812 21 L 165.492188 21 L 165.492188 111.824219 L 104.757812 111.824219 Z M 104.757812 21 " clip-rule="nonzero"/></clipPath><clipPath id="764edb1767"><path d="M 158.085938 109.816406 C 150.144531 96.257812 149.546875 93.261719 147.824219 89.515625 C 145.574219 84.570312 141.15625 77.679688 138.832031 72.660156 C 137.035156 68.765625 136.4375 65.621094 134.714844 62.171875 C 132.839844 58.429688 130.519531 54.757812 127.820312 51.011719 C 124.824219 46.667969 121.230469 41.875 117.484375 37.902344 C 113.738281 34.007812 106.699219 30.261719 105.273438 27.339844 C 104.601562 25.917969 104.75 24.496094 105.125 23.519531 C 105.425781 22.695312 106.171875 21.949219 106.921875 21.574219 C 107.671875 21.199219 108.644531 20.972656 109.46875 21.199219 C 110.519531 21.421875 112.015625 22.621094 112.539062 23.519531 C 112.992188 24.269531 113.066406 25.320312 112.839844 26.144531 C 112.539062 27.191406 111.417969 28.691406 110.292969 29.0625 C 109.246094 29.515625 107.445312 29.140625 106.472656 28.613281 C 105.722656 28.242188 105.125 27.417969 104.898438 26.515625 C 104.675781 25.46875 104.824219 23.671875 105.574219 22.773438 C 106.25 21.875 107.671875 21.050781 109.09375 21.125 C 111.492188 21.347656 115.386719 24.945312 118.308594 27.492188 C 121.453125 30.113281 124.152344 32.882812 127.296875 36.855469 C 131.792969 42.621094 138.757812 53.410156 141.90625 59.476562 C 143.777344 63.222656 144.003906 65.394531 145.574219 68.988281 C 147.898438 73.933594 152.617188 81.574219 154.789062 86.519531 C 156.285156 89.890625 156.585938 92.285156 158.085938 95.28125 C 159.882812 98.953125 164.601562 104.121094 165.277344 106.667969 C 165.574219 107.867188 165.425781 108.691406 165.050781 109.515625 C 164.75 110.265625 163.851562 111.089844 163.105469 111.464844 C 162.28125 111.835938 161.082031 111.835938 160.257812 111.613281 C 159.433594 111.3125 158.085938 109.816406 158.085938 109.816406 " clip-rule="nonzero"/></clipPath><clipPath id="9af0cd3986"><path d="M 0.757812 0 L 61.492188 0 L 61.492188 90.824219 L 0.757812 90.824219 Z M 0.757812 0 " clip-rule="nonzero"/></clipPath><clipPath id="90fe2e9f46"><path d="M 54.085938 88.816406 C 46.144531 75.257812 45.546875 72.261719 43.824219 68.515625 C 41.574219 63.570312 37.15625 56.679688 34.832031 51.660156 C 33.035156 47.765625 32.4375 44.621094 30.714844 41.171875 C 28.839844 37.429688 26.519531 33.757812 23.820312 30.011719 C 20.824219 25.667969 17.230469 20.875 13.484375 16.902344 C 9.738281 13.007812 2.699219 9.261719 1.273438 6.339844 C 0.601562 4.917969 0.75 3.496094 1.125 2.519531 C 1.425781 1.695312 2.171875 0.949219 2.921875 0.574219 C 3.671875 0.199219 4.644531 -0.0273438 5.46875 0.199219 C 6.519531 0.421875 8.015625 1.621094 8.539062 2.519531 C 8.992188 3.269531 9.066406 4.320312 8.839844 5.144531 C 8.539062 6.191406 7.417969 7.691406 6.292969 8.0625 C 5.246094 8.515625 3.445312 8.140625 2.472656 7.613281 C 1.722656 7.242188 1.125 6.417969 0.898438 5.515625 C 0.675781 4.46875 0.824219 2.671875 1.574219 1.773438 C 2.25 0.875 3.671875 0.0507812 5.09375 0.125 C 7.492188 0.347656 11.386719 3.945312 14.308594 6.492188 C 17.453125 9.113281 20.152344 11.882812 23.296875 15.855469 C 27.792969 21.621094 34.757812 32.410156 37.90625 38.476562 C 39.777344 42.222656 40.003906 44.394531 41.574219 47.988281 C 43.898438 52.933594 48.617188 60.574219 50.789062 65.519531 C 52.285156 68.890625 52.585938 71.285156 54.085938 74.28125 C 55.882812 77.953125 60.601562 83.121094 61.277344 85.667969 C 61.574219 86.867188 61.425781 87.691406 61.050781 88.515625 C 60.75 89.265625 59.851562 90.089844 59.105469 90.464844 C 58.28125 90.835938 57.082031 90.835938 56.257812 90.613281 C 55.433594 90.3125 54.085938 88.816406 54.085938 88.816406 " clip-rule="nonzero"/></clipPath><clipPath id="9de0238d81"><rect x="0" width="62" y="0" height="91"/></clipPath><clipPath id="740768ede4"><path d="M 91.335938 152.71875 L 251.875 152.71875 L 251.875 196.828125 L 91.335938 196.828125 Z M 91.335938 152.71875 " clip-rule="nonzero"/></clipPath><clipPath id="f3df080ec7"><path d="M 103.175781 158.65625 C 151.117188 156.03125 152.542969 155.285156 158.984375 154.835938 C 173.964844 153.859375 218.535156 151.164062 233.59375 154.011719 C 240.484375 155.359375 245.128906 156.183594 248.050781 159.929688 C 251.269531 163.972656 252.992188 173.261719 250.894531 178.28125 C 248.796875 183.523438 240.410156 187.644531 234.714844 190.339844 C 229.546875 192.664062 224.902344 193.261719 218.460938 194.085938 C 209.398438 195.210938 194.191406 194.3125 185.277344 194.835938 C 179.207031 195.136719 176.8125 195.808594 170.070312 196.109375 C 156.4375 196.707031 117.410156 197.082031 108.796875 196.410156 C 106.472656 196.257812 105.800781 196.183594 104.449219 195.660156 C 103.027344 195.210938 101.679688 194.460938 100.554688 193.636719 C 99.355469 192.738281 98.308594 191.613281 97.484375 190.414062 C 96.660156 189.21875 95.984375 187.792969 95.613281 186.371094 C 95.238281 184.949219 95.011719 183.375 95.164062 181.953125 C 95.238281 180.527344 95.535156 178.953125 96.0625 177.605469 C 96.585938 176.257812 97.410156 174.910156 98.382812 173.785156 C 99.28125 172.738281 100.480469 171.6875 101.753906 170.941406 C 103.027344 170.191406 104.449219 169.589844 105.875 169.292969 C 107.296875 168.992188 108.871094 168.917969 110.292969 169.066406 C 111.71875 169.21875 113.289062 169.667969 114.5625 170.265625 C 115.910156 170.863281 117.183594 171.765625 118.234375 172.738281 C 119.28125 173.710938 120.257812 174.984375 120.929688 176.257812 C 121.605469 177.53125 122.128906 179.03125 122.355469 180.453125 C 122.578125 181.953125 122.578125 183.449219 122.355469 184.949219 C 122.128906 186.371094 121.605469 187.792969 120.929688 189.140625 C 120.257812 190.414062 119.28125 191.613281 118.234375 192.664062 C 117.183594 193.636719 115.910156 194.535156 114.5625 195.136719 C 113.214844 195.734375 111.71875 196.183594 110.292969 196.332031 C 108.871094 196.484375 107.296875 196.410156 105.875 196.109375 C 104.449219 195.734375 103.027344 195.210938 101.753906 194.460938 C 100.480469 193.710938 99.28125 192.664062 98.382812 191.539062 C 97.410156 190.492188 96.585938 189.140625 96.0625 187.792969 C 95.535156 186.445312 95.238281 184.871094 95.164062 183.449219 C 95.011719 181.953125 95.238281 180.453125 95.613281 179.03125 C 95.984375 177.605469 96.660156 176.183594 97.484375 174.984375 C 98.308594 173.785156 99.355469 172.664062 100.554688 171.765625 C 101.679688 170.863281 103.027344 170.191406 104.449219 169.667969 C 105.800781 169.21875 106.546875 169.140625 108.796875 168.992188 C 116.511719 168.316406 143.101562 169.292969 159.882812 168.917969 C 176.210938 168.542969 196.214844 166.519531 208.199219 166.894531 C 215.3125 167.042969 221.457031 165.769531 225.203125 168.542969 C 228.574219 171.089844 232.691406 178.582031 230.59375 181.652344 C 225.875 188.769531 176.363281 180.902344 153.214844 181.425781 C 134.414062 181.800781 110.445312 185.320312 102.054688 183.824219 C 99.132812 183.300781 97.859375 182.324219 96.4375 181.425781 C 95.460938 180.753906 94.9375 180.226562 94.261719 179.253906 C 93.289062 177.90625 92.089844 175.359375 91.714844 173.785156 C 91.417969 172.664062 91.34375 171.914062 91.492188 170.714844 C 91.640625 169.066406 92.464844 166.371094 93.214844 164.871094 C 93.738281 163.824219 94.1875 163.222656 95.011719 162.476562 C 96.285156 161.351562 98.683594 159.851562 100.179688 159.253906 C 101.304688 158.804688 103.175781 158.65625 103.175781 158.65625 " clip-rule="nonzero"/></clipPath><clipPath id="8943f3b9ae"><path d="M 0.335938 0.71875 L 160.875 0.71875 L 160.875 44.828125 L 0.335938 44.828125 Z M 0.335938 0.71875 " clip-rule="nonzero"/></clipPath><clipPath id="d2ecd68e65"><path d="M 12.175781 6.65625 C 60.117188 4.03125 61.542969 3.285156 67.984375 2.835938 C 82.964844 1.859375 127.535156 -0.835938 142.59375 2.011719 C 149.484375 3.359375 154.128906 4.183594 157.050781 7.929688 C 160.269531 11.972656 161.992188 21.261719 159.894531 26.28125 C 157.796875 31.523438 149.410156 35.644531 143.714844 38.339844 C 138.546875 40.664062 133.902344 41.261719 127.460938 42.085938 C 118.398438 43.210938 103.191406 42.3125 94.277344 42.835938 C 88.207031 43.136719 85.8125 43.808594 79.070312 44.109375 C 65.4375 44.707031 26.410156 45.082031 17.796875 44.410156 C 15.472656 44.257812 14.800781 44.183594 13.449219 43.660156 C 12.027344 43.210938 10.679688 42.460938 9.554688 41.636719 C 8.355469 40.738281 7.308594 39.613281 6.484375 38.414062 C 5.660156 37.21875 4.984375 35.792969 4.613281 34.371094 C 4.238281 32.949219 4.011719 31.375 4.164062 29.953125 C 4.238281 28.527344 4.535156 26.953125 5.0625 25.605469 C 5.585938 24.257812 6.410156 22.910156 7.382812 21.785156 C 8.28125 20.738281 9.480469 19.6875 10.753906 18.941406 C 12.027344 18.191406 13.449219 17.589844 14.875 17.292969 C 16.296875 16.992188 17.871094 16.917969 19.292969 17.066406 C 20.71875 17.21875 22.289062 17.667969 23.5625 18.265625 C 24.910156 18.863281 26.183594 19.765625 27.234375 20.738281 C 28.28125 21.710938 29.257812 22.984375 29.929688 24.257812 C 30.605469 25.53125 31.128906 27.03125 31.355469 28.453125 C 31.578125 29.953125 31.578125 31.449219 31.355469 32.949219 C 31.128906 34.371094 30.605469 35.792969 29.929688 37.140625 C 29.257812 38.414062 28.28125 39.613281 27.234375 40.664062 C 26.183594 41.636719 24.910156 42.535156 23.5625 43.136719 C 22.214844 43.734375 20.71875 44.183594 19.292969 44.332031 C 17.871094 44.484375 16.296875 44.410156 14.875 44.109375 C 13.449219 43.734375 12.027344 43.210938 10.753906 42.460938 C 9.480469 41.710938 8.28125 40.664062 7.382812 39.539062 C 6.410156 38.492188 5.585938 37.140625 5.0625 35.792969 C 4.535156 34.445312 4.238281 32.871094 4.164062 31.449219 C 4.011719 29.953125 4.238281 28.453125 4.613281 27.03125 C 4.984375 25.605469 5.660156 24.183594 6.484375 22.984375 C 7.308594 21.785156 8.355469 20.664062 9.554688 19.765625 C 10.679688 18.863281 12.027344 18.191406 13.449219 17.667969 C 14.800781 17.21875 15.546875 17.140625 17.796875 16.992188 C 25.511719 16.316406 52.101562 17.292969 68.882812 16.917969 C 85.210938 16.542969 105.214844 14.519531 117.199219 14.894531 C 124.3125 15.042969 130.457031 13.769531 134.203125 16.542969 C 137.574219 19.089844 141.691406 26.582031 139.59375 29.652344 C 134.875 36.769531 85.363281 28.902344 62.214844 29.425781 C 43.414062 29.800781 19.445312 33.320312 11.054688 31.824219 C 8.132812 31.300781 6.859375 30.324219 5.4375 29.425781 C 4.460938 28.753906 3.9375 28.226562 3.261719 27.253906 C 2.289062 25.90625 1.089844 23.359375 0.714844 21.785156 C 0.417969 20.664062 0.34375 19.914062 0.492188 18.714844 C 0.640625 17.066406 1.464844 14.371094 2.214844 12.871094 C 2.738281 11.824219 3.1875 11.222656 4.011719 10.476562 C 5.285156 9.351562 7.683594 7.851562 9.179688 7.253906 C 10.304688 6.804688 12.175781 6.65625 12.175781 6.65625 " clip-rule="nonzero"/></clipPath><clipPath id="63b8ab6afb"><rect x="0" width="161" y="0" height="45"/></clipPath><clipPath id="7d90ca8e72"><path d="M 2.496094 88.460938 L 368 88.460938 L 368 403 L 2.496094 403 Z M 2.496094 88.460938 " clip-rule="nonzero"/></clipPath><clipPath id="36122b2a41"><path d="M 3.25 205.621094 C 7.59375 163.300781 12.164062 155.660156 17.558594 148.992188 C 22.949219 142.324219 35.085938 133.484375 37.410156 131.988281 C 37.78125 131.6875 37.933594 131.914062 38.230469 131.613281 C 39.132812 130.5625 39.132812 125.84375 41.304688 122.550781 C 45.273438 116.554688 55.386719 106.667969 64.523438 101.5 C 74.261719 95.957031 90.144531 90.5625 98.53125 91.164062 C 103.703125 91.539062 105.351562 95.359375 110.59375 96.78125 C 119.28125 99.179688 140.707031 97.980469 146.550781 100.601562 C 148.796875 101.574219 148.945312 103.671875 150.445312 104.195312 C 152.015625 104.722656 153.289062 103.898438 155.761719 103.898438 C 161.15625 103.898438 173.367188 105.171875 182.128906 105.546875 C 190.96875 105.84375 206.851562 105.320312 208.496094 105.84375 C 208.722656 105.917969 208.648438 106.070312 208.796875 106.070312 C 209.921875 106.070312 215.238281 100.152344 220.035156 97.980469 C 226.625 95.058594 237.1875 94.234375 245.875 92.660156 C 254.714844 91.011719 263.105469 88.390625 272.617188 88.464844 C 283.40625 88.464844 298.238281 89.140625 307.300781 94.007812 C 315.167969 98.355469 320.636719 106.519531 325.203125 114.085938 C 329.921875 121.648438 332.46875 134.609375 335.09375 139.554688 C 336.289062 141.800781 337.5625 143.597656 338.3125 144.046875 C 338.613281 144.273438 338.988281 144.199219 339.0625 144.199219 C 339.0625 144.199219 341.308594 145.246094 342.433594 145.695312 C 343.554688 146.21875 345.730469 147.195312 345.804688 147.269531 C 345.878906 147.269531 347.75 148.765625 348.726562 149.515625 C 349.699219 150.265625 351.570312 151.761719 351.648438 151.839844 C 351.648438 151.839844 353.144531 153.785156 353.894531 154.757812 C 354.644531 155.734375 356.140625 157.605469 356.214844 157.605469 C 356.214844 157.605469 356.214844 157.679688 356.214844 157.679688 C 356.214844 157.757812 362.582031 168.167969 364.230469 174.835938 C 366.253906 183.148438 365.730469 203.75 365.730469 203.898438 C 365.730469 203.972656 365.578125 206.371094 365.503906 207.570312 C 365.429688 208.84375 365.28125 211.238281 365.28125 211.316406 C 365.28125 211.316406 364.53125 213.636719 364.15625 214.835938 C 363.78125 215.960938 363.03125 218.28125 363.03125 218.355469 C 363.03125 218.355469 361.835938 219.480469 361.609375 220.679688 C 361.085938 224.125 365.578125 234.3125 366.476562 242.027344 C 367.453125 250.941406 366.476562 261.804688 366.476562 271.316406 C 366.554688 280.304688 368.425781 288.84375 366.554688 297.535156 C 364.605469 306.972656 359.738281 320.082031 354.117188 325.625 C 350.148438 329.445312 341.234375 329.667969 340.035156 331.46875 C 339.585938 332.066406 339.960938 332.589844 339.960938 333.265625 C 339.886719 334.3125 339.8125 336.933594 339.8125 337.011719 C 339.8125 337.085938 339.136719 339.40625 338.835938 340.605469 C 338.460938 341.804688 337.863281 344.203125 337.789062 344.203125 C 337.789062 344.277344 336.589844 346.375 335.992188 347.496094 C 335.390625 348.546875 334.191406 350.71875 334.117188 350.71875 C 334.117188 350.792969 332.46875 352.515625 331.570312 353.414062 C 330.746094 354.390625 329.023438 356.113281 329.023438 356.1875 C 328.949219 356.1875 326.925781 357.535156 325.878906 358.210938 C 324.828125 358.882812 322.808594 360.230469 322.730469 360.230469 C 322.65625 360.230469 320.410156 361.054688 319.210938 361.429688 C 318.011719 361.878906 315.691406 362.628906 315.691406 362.628906 C 315.390625 362.777344 298.011719 367.046875 290.746094 372.441406 C 282.804688 378.433594 279.0625 393.117188 270.671875 398.058594 C 262.957031 402.554688 252.542969 402.703125 243.179688 402.480469 C 233.441406 402.253906 223.703125 398.136719 213.441406 396.039062 C 202.429688 393.789062 188.871094 393.867188 179.433594 389.519531 C 171.269531 385.777344 166.625 374.464844 159.132812 373.566406 C 151.34375 372.589844 141.53125 381.28125 133.214844 385.324219 C 125.425781 389.222656 118.832031 395.140625 110.742188 397.535156 C 102.277344 400.007812 92.464844 399.332031 83.402344 399.707031 C 74.335938 400.082031 65.050781 401.507812 56.210938 399.707031 C 47.222656 397.835938 36.882812 394.238281 29.917969 388.546875 C 23.175781 383.003906 17.855469 374.539062 14.859375 366.523438 C 11.863281 358.582031 12.3125 349.59375 11.789062 340.832031 C 11.265625 331.617188 11.789062 321.804688 11.789062 312.589844 C 11.789062 303.75 12.3125 295.4375 11.789062 286.597656 C 11.265625 277.308594 10.214844 267.421875 8.71875 258.355469 C 7.296875 249.59375 4.222656 241.652344 3.25 232.964844 C 2.351562 224.125 3.25 205.621094 3.25 205.621094 " clip-rule="nonzero"/></clipPath><clipPath id="ae0c91d3c4"><path d="M 0.496094 0.460938 L 366 0.460938 L 366 314.703125 L 0.496094 314.703125 Z M 0.496094 0.460938 " clip-rule="nonzero"/></clipPath><clipPath id="6af4cfd5e5"><path d="M 1.25 117.621094 C 5.59375 75.300781 10.164062 67.660156 15.558594 60.992188 C 20.949219 54.324219 33.085938 45.484375 35.410156 43.988281 C 35.78125 43.6875 35.933594 43.914062 36.230469 43.613281 C 37.132812 42.5625 37.132812 37.84375 39.304688 34.550781 C 43.273438 28.554688 53.386719 18.667969 62.523438 13.5 C 72.261719 7.957031 88.144531 2.5625 96.53125 3.164062 C 101.703125 3.539062 103.351562 7.359375 108.59375 8.78125 C 117.28125 11.179688 138.707031 9.980469 144.550781 12.601562 C 146.796875 13.574219 146.945312 15.671875 148.445312 16.195312 C 150.015625 16.722656 151.289062 15.898438 153.761719 15.898438 C 159.15625 15.898438 171.367188 17.171875 180.128906 17.546875 C 188.96875 17.84375 204.851562 17.320312 206.496094 17.84375 C 206.722656 17.917969 206.648438 18.070312 206.796875 18.070312 C 207.921875 18.070312 213.238281 12.152344 218.035156 9.980469 C 224.625 7.058594 235.1875 6.234375 243.875 4.660156 C 252.714844 3.011719 261.105469 0.390625 270.617188 0.464844 C 281.40625 0.464844 296.238281 1.140625 305.300781 6.007812 C 313.167969 10.355469 318.636719 18.519531 323.203125 26.085938 C 327.921875 33.648438 330.46875 46.609375 333.09375 51.554688 C 334.289062 53.800781 335.5625 55.597656 336.3125 56.046875 C 336.613281 56.273438 336.988281 56.199219 337.0625 56.199219 C 337.0625 56.199219 339.308594 57.246094 340.433594 57.695312 C 341.554688 58.21875 343.730469 59.195312 343.804688 59.269531 C 343.878906 59.269531 345.75 60.765625 346.726562 61.515625 C 347.699219 62.265625 349.570312 63.761719 349.648438 63.839844 C 349.648438 63.839844 351.144531 65.785156 351.894531 66.757812 C 352.644531 67.734375 354.140625 69.605469 354.214844 69.605469 C 354.214844 69.605469 354.214844 69.679688 354.214844 69.679688 C 354.214844 69.757812 360.582031 80.167969 362.230469 86.835938 C 364.253906 95.148438 363.730469 115.75 363.730469 115.898438 C 363.730469 115.972656 363.578125 118.371094 363.503906 119.570312 C 363.429688 120.84375 363.28125 123.238281 363.28125 123.316406 C 363.28125 123.316406 362.53125 125.636719 362.15625 126.835938 C 361.78125 127.960938 361.03125 130.28125 361.03125 130.355469 C 361.03125 130.355469 359.835938 131.480469 359.609375 132.679688 C 359.085938 136.125 363.578125 146.3125 364.476562 154.027344 C 365.453125 162.941406 364.476562 173.804688 364.476562 183.316406 C 364.554688 192.304688 366.425781 200.84375 364.554688 209.535156 C 362.605469 218.972656 357.738281 232.082031 352.117188 237.625 C 348.148438 241.445312 339.234375 241.667969 338.035156 243.46875 C 337.585938 244.066406 337.960938 244.589844 337.960938 245.265625 C 337.886719 246.3125 337.8125 248.933594 337.8125 249.011719 C 337.8125 249.085938 337.136719 251.40625 336.835938 252.605469 C 336.460938 253.804688 335.863281 256.203125 335.789062 256.203125 C 335.789062 256.277344 334.589844 258.375 333.992188 259.496094 C 333.390625 260.546875 332.191406 262.71875 332.117188 262.71875 C 332.117188 262.792969 330.46875 264.515625 329.570312 265.414062 C 328.746094 266.390625 327.023438 268.113281 327.023438 268.1875 C 326.949219 268.1875 324.925781 269.535156 323.878906 270.210938 C 322.828125 270.882812 320.808594 272.230469 320.730469 272.230469 C 320.65625 272.230469 318.410156 273.054688 317.210938 273.429688 C 316.011719 273.878906 313.691406 274.628906 313.691406 274.628906 C 313.390625 274.777344 296.011719 279.046875 288.746094 284.441406 C 280.804688 290.433594 277.0625 305.117188 268.671875 310.058594 C 260.957031 314.554688 250.542969 314.703125 241.179688 314.480469 C 231.441406 314.253906 221.703125 310.136719 211.441406 308.039062 C 200.429688 305.789062 186.871094 305.867188 177.433594 301.519531 C 169.269531 297.777344 164.625 286.464844 157.132812 285.566406 C 149.34375 284.589844 139.53125 293.28125 131.214844 297.324219 C 123.425781 301.222656 116.832031 307.140625 108.742188 309.535156 C 100.277344 312.007812 90.464844 311.332031 81.402344 311.707031 C 72.335938 312.082031 63.050781 313.507812 54.210938 311.707031 C 45.222656 309.835938 34.882812 306.238281 27.917969 300.546875 C 21.175781 295.003906 15.855469 286.539062 12.859375 278.523438 C 9.863281 270.582031 10.3125 261.59375 9.789062 252.832031 C 9.265625 243.617188 9.789062 233.804688 9.789062 224.589844 C 9.789062 215.75 10.3125 207.4375 9.789062 198.597656 C 9.265625 189.308594 8.214844 179.421875 6.71875 170.355469 C 5.296875 161.59375 2.222656 153.652344 1.25 144.964844 C 0.351562 136.125 1.25 117.621094 1.25 117.621094 " clip-rule="nonzero"/></clipPath><clipPath id="a3e08c26a0"><rect x="0" width="366" y="0" height="315"/></clipPath><clipPath id="1248a60d37"><path d="M 245.222656 333.445312 L 295.304688 333.445312 L 295.304688 384.628906 L 245.222656 384.628906 Z M 245.222656 333.445312 " clip-rule="nonzero"/></clipPath><clipPath id="0dd499aa79"><path d="M 295.089844 351.46875 C 295.089844 367.496094 293.21875 371.691406 290.820312 374.765625 C 288.347656 377.835938 284.753906 380.683594 281.160156 382.253906 C 277.5625 383.902344 273.144531 384.726562 269.171875 384.503906 C 265.277344 384.203125 260.933594 382.855469 257.5625 380.832031 C 254.191406 378.808594 250.96875 375.589844 248.949219 372.21875 C 246.925781 368.847656 245.578125 364.5 245.351562 360.605469 C 245.054688 356.636719 245.875 352.214844 247.523438 348.621094 C 249.171875 345.027344 251.945312 341.429688 255.015625 339.03125 C 258.160156 336.5625 262.28125 334.6875 266.175781 334.015625 C 269.996094 333.265625 274.566406 333.566406 278.3125 334.761719 C 282.058594 335.886719 288.722656 341.054688 288.722656 341.054688 " clip-rule="nonzero"/></clipPath><clipPath id="7f47673f1b"><path d="M 0.222656 0.445312 L 50.179688 0.445312 L 50.179688 51.628906 L 0.222656 51.628906 Z M 0.222656 0.445312 " clip-rule="nonzero"/></clipPath><clipPath id="d85fed656a"><path d="M 50.089844 18.46875 C 50.089844 34.496094 48.21875 38.691406 45.820312 41.765625 C 43.347656 44.835938 39.753906 47.683594 36.160156 49.253906 C 32.5625 50.902344 28.144531 51.726562 24.171875 51.503906 C 20.277344 51.203125 15.933594 49.855469 12.5625 47.832031 C 9.191406 45.808594 5.96875 42.589844 3.949219 39.21875 C 1.925781 35.847656 0.578125 31.5 0.351562 27.605469 C 0.0546875 23.636719 0.875 19.214844 2.523438 15.621094 C 4.171875 12.027344 6.945312 8.429688 10.015625 6.03125 C 13.160156 3.5625 17.28125 1.6875 21.175781 1.015625 C 24.996094 0.265625 29.566406 0.566406 33.3125 1.761719 C 37.058594 2.886719 43.722656 8.054688 43.722656 8.054688 " clip-rule="nonzero"/></clipPath><clipPath id="b5af1ef0f7"><rect x="0" width="51" y="0" height="52"/></clipPath><clipPath id="f13514206a"><path d="M 296.011719 133.066406 L 346 133.066406 L 346 184.25 L 296.011719 184.25 Z M 296.011719 133.066406 " clip-rule="nonzero"/></clipPath><clipPath id="470b83ceb9"><path d="M 345.878906 151.089844 C 345.953125 167.195312 344.082031 171.3125 341.609375 174.386719 C 339.210938 177.53125 335.617188 180.304688 332.019531 181.953125 C 328.425781 183.523438 324.003906 184.347656 320.035156 184.125 C 316.140625 183.898438 311.796875 182.550781 308.425781 180.453125 C 305.054688 178.429688 301.832031 175.210938 299.808594 171.839844 C 297.789062 168.46875 296.441406 164.199219 296.140625 160.226562 C 295.914062 156.257812 296.738281 151.839844 298.386719 148.242188 C 299.960938 144.648438 302.808594 141.050781 305.878906 138.65625 C 309.023438 136.183594 313.144531 134.308594 317.039062 133.636719 C 320.859375 132.960938 325.429688 133.1875 329.175781 134.382812 C 332.917969 135.582031 339.585938 140.675781 339.585938 140.675781 " clip-rule="nonzero"/></clipPath><clipPath id="1fe15b5f8a"><path d="M 0.0117188 0.0664062 L 50 0.0664062 L 50 51.25 L 0.0117188 51.25 Z M 0.0117188 0.0664062 " clip-rule="nonzero"/></clipPath><clipPath id="75751a80fb"><path d="M 49.878906 18.089844 C 49.953125 34.195312 48.082031 38.3125 45.609375 41.386719 C 43.210938 44.53125 39.617188 47.304688 36.019531 48.953125 C 32.425781 50.523438 28.003906 51.347656 24.035156 51.125 C 20.140625 50.898438 15.796875 49.550781 12.425781 47.453125 C 9.054688 45.429688 5.832031 42.210938 3.808594 38.839844 C 1.789062 35.46875 0.441406 31.199219 0.140625 27.226562 C -0.0859375 23.257812 0.738281 18.839844 2.386719 15.242188 C 3.960938 11.648438 6.808594 8.050781 9.878906 5.65625 C 13.023438 3.183594 17.144531 1.308594 21.039062 0.636719 C 24.859375 -0.0390625 29.429688 0.1875 33.175781 1.382812 C 36.917969 2.582031 43.585938 7.675781 43.585938 7.675781 " clip-rule="nonzero"/></clipPath><clipPath id="b12f1a09f6"><rect x="0" width="50" y="0" height="52"/></clipPath><clipPath id="fd9c04f668"><path d="M 165.351562 3.445312 L 242.90625 3.445312 L 242.90625 109.558594 L 165.351562 109.558594 Z M 165.351562 3.445312 " clip-rule="nonzero"/></clipPath><clipPath id="c3df68a138"><path d="M 165.425781 90.1875 C 165.5 76.257812 165.277344 71.910156 165.5 67.867188 C 165.652344 63.746094 165.574219 59.328125 166.398438 55.582031 C 167.074219 52.136719 168.121094 49.214844 169.546875 46.066406 C 171.195312 42.699219 173.515625 39.027344 175.761719 36.03125 C 177.785156 33.335938 179.734375 31.160156 182.429688 28.839844 C 185.574219 26.066406 190.296875 23.371094 193.667969 20.972656 C 196.585938 18.953125 198.835938 17.152344 201.679688 15.429688 C 204.828125 13.484375 209.246094 10.863281 211.945312 10.113281 C 213.667969 9.664062 215.839844 10.1875 216.289062 9.8125 C 216.4375 9.738281 216.363281 9.589844 216.4375 9.4375 C 216.585938 9.140625 216.960938 8.765625 217.261719 8.464844 C 217.488281 8.089844 217.636719 7.640625 217.9375 7.339844 C 218.085938 7.191406 218.234375 7.117188 218.386719 6.964844 C 218.535156 6.816406 218.609375 6.667969 218.761719 6.441406 C 219.058594 6.21875 219.507812 6.066406 219.808594 5.769531 C 220.183594 5.542969 220.484375 5.167969 220.78125 5.019531 C 221.007812 4.867188 221.230469 4.867188 221.382812 4.792969 C 221.605469 4.644531 221.679688 4.496094 221.90625 4.417969 C 222.28125 4.269531 222.730469 4.269531 223.179688 4.121094 C 223.554688 3.96875 224.003906 3.746094 224.304688 3.671875 C 224.601562 3.59375 224.753906 3.671875 224.976562 3.671875 C 225.203125 3.59375 225.351562 3.519531 225.578125 3.519531 C 225.953125 3.445312 226.402344 3.59375 226.851562 3.59375 C 227.226562 3.59375 227.824219 3.519531 228.125 3.519531 C 228.199219 3.59375 228.273438 3.671875 228.347656 3.671875 C 228.574219 3.746094 228.949219 3.671875 229.320312 3.746094 C 230.144531 3.96875 231.71875 4.570312 232.769531 5.242188 C 233.816406 5.917969 234.714844 7.117188 235.613281 7.714844 C 236.214844 8.164062 236.8125 7.941406 237.414062 8.6875 C 239.136719 10.863281 241.683594 20.300781 242.429688 25.242188 C 243.03125 29.140625 242.429688 32.285156 242.429688 35.882812 C 242.355469 39.550781 242.730469 43.371094 242.28125 46.890625 C 241.832031 50.339844 241.15625 53.632812 239.960938 56.855469 C 238.6875 60.300781 237.039062 63.746094 234.789062 66.816406 C 232.394531 70.113281 228.722656 72.585938 225.652344 75.957031 C 222.132812 79.777344 218.234375 84.796875 215.164062 88.839844 C 212.542969 92.285156 210.746094 95.730469 208.125 98.730469 C 205.425781 101.726562 202.578125 105.097656 199.132812 106.820312 C 195.613281 108.617188 191.121094 108.839844 187.222656 109.140625 C 183.703125 109.441406 180.109375 109.738281 176.960938 108.839844 C 173.890625 107.941406 170.371094 106.519531 168.421875 103.898438 C 166.101562 100.75 165.425781 90.1875 165.425781 90.1875 M 188.046875 78.804688 C 188.121094 85.769531 187.898438 85.996094 188.121094 86.21875 C 188.421875 86.519531 189.996094 86.667969 190.894531 86.144531 C 192.542969 85.09375 193.667969 79.851562 195.164062 77.378906 C 196.363281 75.355469 199.058594 72.4375 198.910156 72.210938 C 198.835938 72.136719 198.160156 72.734375 197.484375 73.183594 C 196.136719 74.082031 192.765625 76.554688 191.195312 77.453125 C 190.296875 77.980469 189.621094 78.355469 189.023438 78.578125 C 188.648438 78.726562 188.046875 78.804688 188.046875 78.804688 M 191.417969 52.660156 C 197.636719 48.164062 201.832031 45.84375 204.753906 43.371094 C 207.523438 40.898438 210.21875 38.277344 212.316406 35.132812 C 214.414062 31.910156 217.335938 24.421875 217.261719 24.34375 C 217.113281 24.269531 214.191406 32.136719 211.34375 35.058594 C 208.421875 38.203125 202.804688 39.550781 199.582031 42.171875 C 196.8125 44.421875 193.964844 47.492188 192.691406 49.515625 C 191.941406 50.710938 191.417969 52.660156 191.417969 52.660156 " clip-rule="nonzero"/></clipPath><clipPath id="f6586cde5a"><path d="M 0.351562 0.445312 L 77.90625 0.445312 L 77.90625 106.558594 L 0.351562 106.558594 Z M 0.351562 0.445312 " clip-rule="nonzero"/></clipPath><clipPath id="15d724c080"><path d="M 0.425781 87.1875 C 0.5 73.257812 0.277344 68.910156 0.5 64.867188 C 0.652344 60.746094 0.574219 56.328125 1.398438 52.582031 C 2.074219 49.136719 3.121094 46.214844 4.546875 43.066406 C 6.195312 39.699219 8.515625 36.027344 10.761719 33.03125 C 12.785156 30.335938 14.734375 28.160156 17.429688 25.839844 C 20.574219 23.066406 25.296875 20.371094 28.667969 17.972656 C 31.585938 15.953125 33.835938 14.152344 36.679688 12.429688 C 39.828125 10.484375 44.246094 7.863281 46.945312 7.113281 C 48.667969 6.664062 50.839844 7.1875 51.289062 6.8125 C 51.4375 6.738281 51.363281 6.589844 51.4375 6.4375 C 51.585938 6.140625 51.960938 5.765625 52.261719 5.464844 C 52.488281 5.089844 52.636719 4.640625 52.9375 4.339844 C 53.085938 4.191406 53.234375 4.117188 53.386719 3.964844 C 53.535156 3.816406 53.609375 3.667969 53.761719 3.441406 C 54.058594 3.21875 54.507812 3.066406 54.808594 2.769531 C 55.183594 2.542969 55.484375 2.167969 55.78125 2.019531 C 56.007812 1.867188 56.230469 1.867188 56.382812 1.792969 C 56.605469 1.644531 56.679688 1.496094 56.90625 1.417969 C 57.28125 1.269531 57.730469 1.269531 58.179688 1.121094 C 58.554688 0.96875 59.003906 0.746094 59.304688 0.671875 C 59.601562 0.59375 59.753906 0.671875 59.976562 0.671875 C 60.203125 0.59375 60.351562 0.519531 60.578125 0.519531 C 60.953125 0.445312 61.402344 0.59375 61.851562 0.59375 C 62.226562 0.59375 62.824219 0.519531 63.125 0.519531 C 63.199219 0.59375 63.273438 0.671875 63.347656 0.671875 C 63.574219 0.746094 63.949219 0.671875 64.320312 0.746094 C 65.144531 0.96875 66.71875 1.570312 67.769531 2.242188 C 68.816406 2.917969 69.714844 4.117188 70.613281 4.714844 C 71.214844 5.164062 71.8125 4.941406 72.414062 5.6875 C 74.136719 7.863281 76.683594 17.300781 77.429688 22.242188 C 78.03125 26.140625 77.429688 29.285156 77.429688 32.882812 C 77.355469 36.550781 77.730469 40.371094 77.28125 43.890625 C 76.832031 47.339844 76.15625 50.632812 74.960938 53.855469 C 73.6875 57.300781 72.039062 60.746094 69.789062 63.816406 C 67.394531 67.113281 63.722656 69.585938 60.652344 72.957031 C 57.132812 76.777344 53.234375 81.796875 50.164062 85.839844 C 47.542969 89.285156 45.746094 92.730469 43.125 95.730469 C 40.425781 98.726562 37.578125 102.097656 34.132812 103.820312 C 30.613281 105.617188 26.121094 105.839844 22.222656 106.140625 C 18.703125 106.441406 15.109375 106.738281 11.960938 105.839844 C 8.890625 104.941406 5.371094 103.519531 3.421875 100.898438 C 1.101562 97.75 0.425781 87.1875 0.425781 87.1875 M 23.046875 75.804688 C 23.121094 82.769531 22.898438 82.996094 23.121094 83.21875 C 23.421875 83.519531 24.996094 83.667969 25.894531 83.144531 C 27.542969 82.09375 28.667969 76.851562 30.164062 74.378906 C 31.363281 72.355469 34.058594 69.4375 33.910156 69.210938 C 33.835938 69.136719 33.160156 69.734375 32.484375 70.183594 C 31.136719 71.082031 27.765625 73.554688 26.195312 74.453125 C 25.296875 74.980469 24.621094 75.355469 24.023438 75.578125 C 23.648438 75.726562 23.046875 75.804688 23.046875 75.804688 M 26.417969 49.660156 C 32.636719 45.164062 36.832031 42.84375 39.753906 40.371094 C 42.523438 37.898438 45.21875 35.277344 47.316406 32.132812 C 49.414062 28.910156 52.335938 21.421875 52.261719 21.34375 C 52.113281 21.269531 49.191406 29.136719 46.34375 32.058594 C 43.421875 35.203125 37.804688 36.550781 34.582031 39.171875 C 31.8125 41.421875 28.964844 44.492188 27.691406 46.515625 C 26.941406 47.710938 26.417969 49.660156 26.417969 49.660156 " clip-rule="nonzero"/></clipPath><clipPath id="7bb2f94b11"><rect x="0" width="78" y="0" height="107"/></clipPath><clipPath id="89a14bf554"><path d="M 181.410156 28.714844 L 213.496094 28.714844 L 213.496094 88.765625 L 181.410156 88.765625 Z M 181.410156 28.714844 " clip-rule="nonzero"/></clipPath><clipPath id="36d40c44e2"><path d="M 210.96875 45.394531 C 202.953125 56.253906 202.878906 60.976562 202.578125 65.167969 C 202.207031 69.441406 203.253906 74.609375 202.730469 78.128906 C 202.28125 80.675781 201.53125 82.996094 200.558594 84.496094 C 199.882812 85.542969 199.210938 86.21875 198.085938 86.816406 C 196.511719 87.71875 193.742188 88.691406 191.644531 88.617188 C 189.546875 88.464844 187.074219 87.492188 185.425781 86.144531 C 183.851562 84.722656 182.429688 82.472656 181.980469 80.375 C 181.53125 78.355469 182.054688 75.433594 182.730469 73.710938 C 183.179688 72.511719 183.628906 71.761719 184.601562 70.9375 C 185.949219 69.738281 188.796875 68.242188 190.519531 67.792969 C 191.792969 67.492188 192.691406 67.492188 193.890625 67.792969 C 195.6875 68.242188 198.460938 69.738281 199.808594 70.9375 C 200.78125 71.761719 201.304688 72.511719 201.757812 73.710938 C 202.355469 75.433594 202.878906 78.355469 202.429688 80.375 C 201.980469 82.472656 200.632812 84.796875 198.984375 86.144531 C 197.410156 87.492188 194.863281 88.464844 192.765625 88.617188 C 190.667969 88.691406 187.898438 87.71875 186.324219 86.816406 C 185.203125 86.144531 184.527344 85.542969 183.851562 84.496094 C 182.878906 82.921875 182.128906 80.902344 181.753906 78.128906 C 181.007812 73.484375 181.679688 64.121094 182.207031 58.800781 C 182.578125 54.90625 182.730469 52.0625 183.851562 48.988281 C 185.050781 45.769531 187.375 42.699219 189.394531 39.851562 C 191.34375 37.15625 194.339844 33.933594 195.839844 32.359375 C 196.585938 31.609375 196.8125 31.238281 197.636719 30.710938 C 198.683594 30.039062 200.78125 29.214844 202.054688 28.988281 C 202.953125 28.765625 203.554688 28.765625 204.453125 28.914062 C 205.726562 29.140625 207.671875 29.664062 208.945312 30.5625 C 210.21875 31.386719 211.417969 32.734375 212.167969 34.082031 C 212.917969 35.429688 213.292969 37.453125 213.441406 38.726562 C 213.515625 39.625 213.441406 40.226562 213.140625 41.125 C 212.765625 42.398438 210.96875 45.394531 210.96875 45.394531 " clip-rule="nonzero"/></clipPath><clipPath id="afaecf2002"><path d="M 0.410156 0.714844 L 32.496094 0.714844 L 32.496094 60.691406 L 0.410156 60.691406 Z M 0.410156 0.714844 " clip-rule="nonzero"/></clipPath><clipPath id="265c1d693a"><path d="M 29.96875 17.394531 C 21.953125 28.253906 21.878906 32.976562 21.578125 37.167969 C 21.207031 41.441406 22.253906 46.609375 21.730469 50.128906 C 21.28125 52.675781 20.53125 54.996094 19.558594 56.496094 C 18.882812 57.542969 18.210938 58.21875 17.085938 58.816406 C 15.511719 59.71875 12.742188 60.691406 10.644531 60.617188 C 8.546875 60.464844 6.074219 59.492188 4.425781 58.144531 C 2.851562 56.722656 1.429688 54.472656 0.980469 52.375 C 0.53125 50.355469 1.054688 47.433594 1.730469 45.710938 C 2.179688 44.511719 2.628906 43.761719 3.601562 42.9375 C 4.949219 41.738281 7.796875 40.242188 9.519531 39.792969 C 10.792969 39.492188 11.691406 39.492188 12.890625 39.792969 C 14.6875 40.242188 17.460938 41.738281 18.808594 42.9375 C 19.78125 43.761719 20.304688 44.511719 20.757812 45.710938 C 21.355469 47.433594 21.878906 50.355469 21.429688 52.375 C 20.980469 54.472656 19.632812 56.796875 17.984375 58.144531 C 16.410156 59.492188 13.863281 60.464844 11.765625 60.617188 C 9.667969 60.691406 6.898438 59.71875 5.324219 58.816406 C 4.203125 58.144531 3.527344 57.542969 2.851562 56.496094 C 1.878906 54.921875 1.128906 52.902344 0.753906 50.128906 C 0.0078125 45.484375 0.679688 36.121094 1.207031 30.800781 C 1.578125 26.90625 1.730469 24.0625 2.851562 20.988281 C 4.050781 17.769531 6.375 14.699219 8.394531 11.851562 C 10.34375 9.15625 13.339844 5.933594 14.839844 4.359375 C 15.585938 3.609375 15.8125 3.238281 16.636719 2.710938 C 17.683594 2.039062 19.78125 1.214844 21.054688 0.988281 C 21.953125 0.765625 22.554688 0.765625 23.453125 0.914062 C 24.726562 1.140625 26.671875 1.664062 27.945312 2.5625 C 29.21875 3.386719 30.417969 4.734375 31.167969 6.082031 C 31.917969 7.429688 32.292969 9.453125 32.441406 10.726562 C 32.515625 11.625 32.441406 12.226562 32.140625 13.125 C 31.765625 14.398438 29.96875 17.394531 29.96875 17.394531 " clip-rule="nonzero"/></clipPath><clipPath id="8eff2f0e49"><rect x="0" width="33" y="0" height="61"/></clipPath></defs><g clip-path="url(#449ec0fc4e)"><g clip-path="url(#6c0be8f2b3)"><g transform="matrix(1, 0, 0, 1, 1, 83)"><g clip-path="url(#82988a80a9)"><g clip-path="url(#23a4d72e9b)"><g clip-path="url(#02d743a308)"><rect x="-83.005" width="536.76" fill="#e7191f" height="585.359983" y="-172.429997" fill-opacity="1"/></g></g></g></g></g></g><g clip-path="url(#099905964c)"><g clip-path="url(#d292043077)"><g transform="matrix(1, 0, 0, 1, 156, 2)"><g clip-path="url(#db6ae75733)"><g clip-path="url(#c41f3fef03)"><g clip-path="url(#62b7c2d2c2)"><rect x="-238.005" width="536.76" fill="#14ae5c" height="585.359983" y="-91.429997" fill-opacity="1"/></g></g></g></g></g></g><g clip-path="url(#4aa3b78b8e)"><g clip-path="url(#764edb1767)"><g transform="matrix(1, 0, 0, 1, 104, 21)"><g clip-path="url(#9de0238d81)"><g clip-path="url(#9af0cd3986)"><g clip-path="url(#90fe2e9f46)"><rect x="-186.005" width="536.76" fill="#ae6314" height="585.359983" y="-110.429997" fill-opacity="1"/></g></g></g></g></g></g><g clip-path="url(#740768ede4)"><g clip-path="url(#f3df080ec7)"><g transform="matrix(1, 0, 0, 1, 91, 152)"><g clip-path="url(#63b8ab6afb)"><g clip-path="url(#8943f3b9ae)"><g clip-path="url(#d2ecd68e65)"><rect x="-173.005" width="536.76" fill="#e7191f" height="585.359983" y="-241.429997" fill-opacity="1"/></g></g></g></g></g></g><g clip-path="url(#7d90ca8e72)"><g clip-path="url(#36122b2a41)"><g transform="matrix(1, 0, 0, 1, 2, 88)"><g clip-path="url(#a3e08c26a0)"><g clip-path="url(#ae0c91d3c4)"><g clip-path="url(#6af4cfd5e5)"><rect x="-84.005" width="536.76" fill="#e7191f" height="585.359983" y="-177.429997" fill-opacity="1"/></g></g></g></g></g></g><g clip-path="url(#1248a60d37)"><g clip-path="url(#0dd499aa79)"><g transform="matrix(1, 0, 0, 1, 245, 333)"><g clip-path="url(#b5af1ef0f7)"><g clip-path="url(#7f47673f1b)"><g clip-path="url(#d85fed656a)"><rect x="-327.005" width="536.76" fill="#e7191f" height="585.359983" y="-422.429997" fill-opacity="1"/></g></g></g></g></g></g><g clip-path="url(#f13514206a)"><g clip-path="url(#470b83ceb9)"><g transform="matrix(1, 0, 0, 1, 296, 133)"><g clip-path="url(#b12f1a09f6)"><g clip-path="url(#1fe15b5f8a)"><g clip-path="url(#75751a80fb)"><rect x="-378.005" width="536.76" fill="#e7191f" height="585.359983" y="-222.429997" fill-opacity="1"/></g></g></g></g></g></g><g clip-path="url(#fd9c04f668)"><g clip-path="url(#c3df68a138)"><g transform="matrix(1, 0, 0, 1, 165, 3)"><g clip-path="url(#7bb2f94b11)"><g clip-path="url(#f6586cde5a)"><g clip-path="url(#15d724c080)"><rect x="-247.005" width="536.76" fill="#14ae5c" height="585.359983" y="-92.429997" fill-opacity="1"/></g></g></g></g></g></g><g clip-path="url(#89a14bf554)"><g clip-path="url(#36d40c44e2)"><g transform="matrix(1, 0, 0, 1, 181, 28)"><g clip-path="url(#8eff2f0e49)"><g clip-path="url(#afaecf2002)"><g clip-path="url(#265c1d693a)"><rect x="-263.005" width="536.76" fill="#14ae5c" height="585.359983" y="-117.429997" fill-opacity="1"/></g></g></g></g></g></g></svg>